# xmcd
#
# Track frame offsets:
#	180
#	1464
#	19494
#	20601
#	27314
#	28386
#	43998
#	45068
#	48316
#	49369
#	63644
#	66000
#	67080
#	76839
#	77910
#	85504
#	86812
#	89111
#	114938
#	116295
#	117423
#	129601
#	130668
#	138251
#	140647
#	142811
#	158396
#	159460
#	164303
#	166680
#	168023
#	185379
#	188285
#	189444
#	206726
#	208263
#	209425
#	226850
#
# Disc length: 3046 seconds
#
# Revision: 3
# Processed by: cddbd v1.5.2PL0 Copyright (c) Steve Scherf et al.
# Submitted via: audiograbber 1.83.01
#
DISCID=070be426
DTITLE=Various Artist - X-Mix - Dance 27 1995
DYEAR=1995
DGENRE=Remix
TTITLE0=Alex Party - Don't Give Me Your Life Intro
TTITLE1=Alex Party - Don't Give Me Your Life
TTITLE2=Alex Party - Don't Give Me Your Life Outro
TTITLE3=Alex Party - Don't Give Me Your Life Bridge
TTITLE4=La Bouche - Sweet Dreams Intro
TTITLE5=La Bouche - Sweet Dreams
TTITLE6=La Bouche - Sweet Dreams Outro
TTITLE7=La Bouche - Sweet Dreams Bridge
TTITLE8=Le Click - Tonight Is The Night Intro
TTITLE9=Le Click - Tonight Is The Night
TTITLE10=Le Click - Tonight Is The Night Outro
TTITLE11=Rednex - Cotton Eye Joe Intro
TTITLE12=Rednex - Cotton Eye Joe Pt.1
TTITLE13=Rednex - Cotton Eye Joe Break
TTITLE14=Rednex - Cotton Eye Joe Pt.2
TTITLE15=Rednex - Cotton Eye Joe Outro
TTITLE16=Bucketheads - The Bomb Intro
TTITLE17=Bucketheads - The Bomb
TTITLE18=Bucketheads - The Bomb Outro
TTITLE19=Corona - Baby, Baby Intro
TTITLE20=Corona - Baby, Baby Pt.1
TTITLE21=Corona - Baby, Baby Break
TTITLE22=Corona - Baby, Baby Pt.2
TTITLE23=Corona - Baby, Baby Outro
TTITLE24=Joanne Farrell - All I Wanna Do Intro
TTITLE25=Joanne Farrell - All I Wanna Do Pt.1
TTITLE26=Joanne Farrell - All I Wanna Do Break
TTITLE27=Joanne Farrell - All I Wanna Do Pt. 2
TTITLE28=Joanne Farrell - All I Wanna Do Outro
TTITLE29=Real McCoy - Come And Get Your Love Intro
TTITLE30=Real McCoy - Come And Get Your Love 
TTITLE31=Real McCoy - Come And Get Your Love Outro
TTITLE32=Reel 2 Real - Conway Intro
TTITLE33=Reel 2 Real - Conway
TTITLE34=Reel 2 Real - Conway Outro
TTITLE35=Shades Of Love - Body To Body Intro
TTITLE36=Shades Of Love - Body To Body 
TTITLE37=Shades Of Love - Body To Body Outro
EXTD=
EXTT0=
EXTT1=
EXTT2=
EXTT3=
EXTT4=
EXTT5=
EXTT6=
EXTT7=
EXTT8=
EXTT9=
EXTT10=
EXTT11=
EXTT12=
EXTT13=
EXTT14=
EXTT15=
EXTT16=
EXTT17=
EXTT18=
EXTT19=
EXTT20=
EXTT21=
EXTT22=
EXTT23=
EXTT24=
EXTT25=
EXTT26=
EXTT27=
EXTT28=
EXTT29=
EXTT30=
EXTT31=
EXTT32=
EXTT33=
EXTT34=
EXTT35=
EXTT36=
EXTT37=
PLAYORDER=
